Coordinates
version=1
nRows=5
nColumns=40
inDegrees=yes

Units are S.I. units (second, meters, Newtons, ...)
Angles are in degrees.

endheader
time	pelvis_tilt	pelvis_list	pelvis_rotation	pelvis_tx	pelvis_ty	pelvis_tz	hip_flexion_r	hip_adduction_r	hip_rotation_r	knee_angle_r	knee_angle_r_beta	ankle_angle_r	subtalar_angle_r	mtp_angle_r	hip_flexion_l	hip_adduction_l	hip_rotation_l	knee_angle_l	knee_angle_l_beta	ankle_angle_l	subtalar_angle_l	mtp_angle_l	lumbar_extension	lumbar_bending	lumbar_rotation	arm_flex_r	arm_add_r	arm_rot_r	elbow_flex_r	pro_sup_r	wrist_flex_r	wrist_dev_r	arm_flex_l	arm_add_l	arm_rot_l	elbow_flex_l	pro_sup_l	wrist_flex_l	wrist_dev_l
     29.06000000	     -3.43367743	     -2.50818851	     -0.99846853	      1.10052898	      0.93359492	      0.39771271	     30.62641490	    -11.22717376	    -10.67685803	     67.04377711	     67.04377711	      6.96319957	    -15.37406379	      1.84664990	     15.37049276	     -3.14715992	    -14.63855389	     20.36173438	     20.36173438	     11.84290318	     -4.34143239	     -5.02298142	     -8.75144774	      2.69183515	      1.01121436	      9.54280776	    -13.46871914	     -5.31478913	     77.79798036	     44.62212874	      0.00000000	      0.00000000	     15.55649850	    -13.40093643	      3.10079082	     29.52840042	     45.56045401	      0.00000000	      0.00000000
     29.07128571	     -3.35890198	     -2.44235220	     -1.05504322	      1.09908548	      0.93384815	      0.39747677	     31.59062568	    -11.27702536	    -10.50811196	     65.25439604	     65.25439604	      6.76731328	    -15.39023476	      1.88079328	     14.48854390	     -3.01578693	    -14.80843179	     19.96498919	     19.96498919	     12.29168363	     -3.99465348	     -5.21914493	     -8.90119199	      2.54830138	      1.00585440	      6.95579675	    -13.78165522	     -5.24100073	     75.37471163	     44.69905565	      0.00000000	      0.00000000	     17.58887538	    -13.93371066	      2.96985030	     30.28621319	     45.62012571	      0.00000000	      0.00000000
     29.08257143	     -3.24628392	     -2.34920465	     -1.10992351	      1.09775495	      0.93410570	      0.39720489	     32.33643397	    -11.33845336	    -10.37169154	     63.22414126	     63.22414126	      6.40709491	    -15.44452225	      1.63337519	     13.58580519	     -2.87590899	    -15.11149747	     19.61082456	     19.61082456	     12.69987744	     -3.51403257	     -5.55808918	     -8.97970209	      2.41094560	      0.96688251	      4.88199302	    -13.71685439	     -5.66704188	     71.65943459	     44.84501428	      0.00000000	      0.00000000	     19.79961379	    -14.41185587	      2.92446493	     30.47803376	     45.67854162	      0.00000000	      0.00000000
     29.09385714	     -3.13984806	     -2.29009213	     -1.17367205	      1.09642131	      0.93435666	      0.39704248	     32.94849700	    -11.28249491	    -10.20674716	     61.00914896	     61.00914896	      6.07137900	    -15.46518995	      1.67046195	     12.63802572	     -2.74246779	    -15.31267664	     19.12694966	     19.12694966	     13.08413698	     -3.10610665	     -5.78119918	     -9.15478528	      2.28739223	      1.00518000	      2.80905344	    -13.79986155	     -5.92040891	     68.35583580	     44.96585974	      0.00000000	      0.00000000	     21.90687969	    -14.84865773	      2.83428384	     30.87901927	     45.73641125	      0.00000000	      0.00000000
     29.10514286	     -3.04896137	     -2.18988069	     -1.20054156	      1.09518097	      0.93451678	      0.39686035	     33.43712940	    -11.27287026	    -10.09319782	     58.63861601	     58.63861601	      5.69529217	    -15.37905402	      1.70187448	     11.72202562	     -2.56678104	    -15.53928185	     18.66076359	     18.66076359	     13.43294234	     -2.62862013	     -6.09178179	     -9.26439760	      2.14076242	      0.94756816	      1.14269994	    -13.59921007	     -6.45681082	     64.22885977	     45.12804937	      0.00000000	      0.00000000	     23.95672410	    -15.21569863	      2.73414017	     30.99982835	     45.79709836	      0.00000000	      0.00000000
